<svg xmlns="http://www.w3.org/2000/svg" width="400" height="510" viewBox="0 0 400 510" data-palette="c9e656-8be76a-f6eaac-0da583fc9bd4" role="img" aria-labelledby="hero-mobile-dark-title hero-mobile-dark-desc"><title id="hero-mobile-dark-title">N-Bridge</title><desc id="hero-mobile-dark-desc">Query the right Google accounts in one call</desc><defs><linearGradient id="brand" gradientUnits="userSpaceOnUse" x2="400" y2="510"><stop stop-color="#c9e656"/><stop offset=".6" stop-color="#8be76a"/><stop offset="1" stop-color="#f6eaac"/></linearGradient><radialGradient id="halo"><stop stop-color="#c9e656" stop-opacity=".22"/><stop offset="1" stop-color="#090c0d" stop-opacity="0"/></radialGradient><filter id="glow"><feGaussianBlur stdDeviation="5"/></filter><pattern id="grid" width="40" height="40" patternUnits="userSpaceOnUse"><path d="M40 0H0V40" fill="none" stroke="#333c1d" stroke-opacity=".35" stroke-width=".6"/></pattern><marker id="arrow" viewBox="0 0 10 10" refX="8" refY="5" markerWidth="5" markerHeight="5" orient="auto"><path d="m1 1 7 4-7 4" fill="none" stroke="#c9e656" stroke-width="1.5"/></marker></defs><style>text{font-family:Arial,"Noto Sans",sans-serif}.flow{stroke-dasharray:10 110;animation:flow 6s linear infinite}.pulse{animation:pulse 5s ease-in-out infinite}.turn{transform-box:fill-box;transform-origin:center;animation:turn 36s linear infinite}@keyframes flow{to{stroke-dashoffset:-360}}@keyframes pulse{0%,100%{opacity:.45}50%{opacity:1}}@keyframes turn{to{transform:rotate(360deg)}}@media(prefers-reduced-motion:reduce){*{animation:none!important;transform:none!important}.flow{display:none}}</style><rect width="400" height="510" rx="16" fill="#090c0d"/><rect width="400" height="510" rx="16" fill="url(#grid)"/><ellipse cx="252.0" cy="219.29999999999998" rx="200.0" ry="357.0" fill="url(#halo)"/><circle cx="271.47" cy="235.51" r="1.66" fill="#8be76a" opacity="0.79"/><circle cx="112.07" cy="446.51" r="1.35" fill="#c9e656" opacity="0.36"/><circle cx="242.27" cy="444.06" r="0.84" fill="#c9e656" opacity="0.59"/><circle cx="268.10" cy="495.35" r="1.21" fill="#8be76a" opacity="0.47"/><circle cx="276.58" cy="485.52" r="0.64" fill="#c9e656" opacity="0.71"/><circle cx="397.49" cy="449.35" r="1.35" fill="#c9e656" opacity="0.55"/><circle cx="226.62" cy="416.49" r="1.52" fill="#8be76a" opacity="0.45"/><circle cx="424.03" cy="375.55" r="1.38" fill="#c9e656" opacity="0.60"/><circle cx="303.83" cy="256.18" r="1.14" fill="#c9e656" opacity="0.69"/><circle cx="196.15" cy="242.71" r="0.75" fill="#8be76a" opacity="0.65"/><circle cx="179.40" cy="475.92" r="1.54" fill="#c9e656" opacity="0.76"/><circle cx="278.28" cy="379.21" r="0.68" fill="#c9e656" opacity="0.78"/><circle cx="280.98" cy="285.44" r="0.77" fill="#8be76a" opacity="0.65"/><circle cx="75.30" cy="403.93" r="1.64" fill="#c9e656" opacity="0.52"/><circle cx="188.78" cy="247.03" r="1.41" fill="#c9e656" opacity="0.73"/><circle cx="116.74" cy="458.64" r="0.74" fill="#8be76a" opacity="0.74"/><circle cx="107.08" cy="299.11" r="1.56" fill="#c9e656" opacity="0.28"/><circle cx="74.50" cy="334.75" r="1.36" fill="#c9e656" opacity="0.76"/><circle cx="82.54" cy="308.57" r="1.52" fill="#8be76a" opacity="0.76"/><circle cx="235.90" cy="501.10" r="1.57" fill="#c9e656" opacity="0.37"/><circle cx="234.60" cy="486.45" r="1.26" fill="#c9e656" opacity="0.60"/><circle cx="109.22" cy="320.17" r="1.65" fill="#8be76a" opacity="0.63"/><circle cx="147.50" cy="469.73" r="0.83" fill="#c9e656" opacity="0.21"/><circle cx="200.40" cy="410.59" r="0.73" fill="#c9e656" opacity="0.58"/><circle cx="264.34" cy="492.24" r="1.17" fill="#8be76a" opacity="0.67"/><circle cx="276.40" cy="239.98" r="0.89" fill="#c9e656" opacity="0.79"/><circle cx="107.85" cy="385.55" r="1.30" fill="#c9e656" opacity="0.39"/><circle cx="278.86" cy="425.24" r="1.62" fill="#8be76a" opacity="0.48"/><circle cx="438.63" cy="368.68" r="0.69" fill="#c9e656" opacity="0.60"/><circle cx="164.17" cy="486.43" r="1.46" fill="#c9e656" opacity="0.74"/><circle cx="286.06" cy="236.59" r="1.27" fill="#8be76a" opacity="0.58"/><circle cx="200.65" cy="333.63" r="1.19" fill="#c9e656" opacity="0.38"/><circle cx="210.92" cy="454.75" r="1.05" fill="#c9e656" opacity="0.24"/><circle cx="155.13" cy="481.74" r="1.48" fill="#8be76a" opacity="0.67"/><circle cx="167.01" cy="236.31" r="1.18" fill="#c9e656" opacity="0.37"/><circle cx="192.54" cy="333.55" r="1.33" fill="#c9e656" opacity="0.38"/><circle cx="234.33" cy="428.81" r="0.62" fill="#8be76a" opacity="0.28"/><circle cx="384.96" cy="419.87" r="1.14" fill="#c9e656" opacity="0.57"/><circle cx="365.31" cy="466.80" r="1.00" fill="#c9e656" opacity="0.69"/><circle cx="417.57" cy="340.22" r="1.11" fill="#8be76a" opacity="0.30"/><circle cx="329.40" cy="244.23" r="1.09" fill="#c9e656" opacity="0.67"/><circle cx="376.75" cy="264.57" r="1.19" fill="#c9e656" opacity="0.57"/><circle cx="296.28" cy="491.67" r="1.23" fill="#8be76a" opacity="0.53"/><circle cx="90.89" cy="438.15" r="1.14" fill="#c9e656" opacity="0.41"/><circle cx="218.51" cy="324.34" r="1.39" fill="#c9e656" opacity="0.64"/><circle cx="325.04" cy="455.98" r="0.73" fill="#8be76a" opacity="0.51"/><circle cx="256.30" cy="233.92" r="1.14" fill="#c9e656" opacity="0.27"/><circle cx="366.67" cy="440.57" r="1.62" fill="#c9e656" opacity="0.25"/><circle cx="286.45" cy="487.85" r="1.49" fill="#8be76a" opacity="0.44"/><circle cx="97.70" cy="344.18" r="1.37" fill="#c9e656" opacity="0.46"/><circle cx="73.36" cy="313.61" r="0.75" fill="#c9e656" opacity="0.76"/><circle cx="336.94" cy="478.46" r="1.51" fill="#8be76a" opacity="0.60"/><circle cx="321.56" cy="325.36" r="0.80" fill="#c9e656" opacity="0.30"/><circle cx="147.27" cy="302.00" r="1.20" fill="#c9e656" opacity="0.45"/><circle cx="252.47" cy="265.93" r="0.99" fill="#8be76a" opacity="0.69"/><circle cx="355.52" cy="383.11" r="1.53" fill="#c9e656" opacity="0.67"/><circle cx="104.67" cy="339.17" r="1.19" fill="#c9e656" opacity="0.42"/><circle cx="81.12" cy="297.86" r="0.79" fill="#8be76a" opacity="0.42"/><circle cx="77.74" cy="314.67" r="1.23" fill="#c9e656" opacity="0.39"/><circle cx="88.50" cy="330.31" r="1.48" fill="#c9e656" opacity="0.54"/><circle cx="149.78" cy="315.73" r="0.84" fill="#8be76a" opacity="0.31"/><circle cx="339.50" cy="384.81" r="1.43" fill="#c9e656" opacity="0.79"/><circle cx="371.53" cy="303.58" r="0.81" fill="#c9e656" opacity="0.78"/><circle cx="396.83" cy="392.70" r="0.68" fill="#8be76a" opacity="0.56"/><circle cx="216.34" cy="266.64" r="1.02" fill="#c9e656" opacity="0.31"/><circle cx="116.29" cy="431.17" r="1.09" fill="#c9e656" opacity="0.20"/><circle cx="93.14" cy="303.01" r="0.61" fill="#8be76a" opacity="0.59"/><circle cx="236.29" cy="246.64" r="1.70" fill="#c9e656" opacity="0.61"/><circle cx="388.49" cy="329.90" r="1.07" fill="#c9e656" opacity="0.51"/><circle cx="156.66" cy="388.88" r="0.78" fill="#8be76a" opacity="0.36"/><circle cx="280.08" cy="346.84" r="0.94" fill="#c9e656" opacity="0.74"/><circle cx="76.61" cy="418.52" r="1.40" fill="#c9e656" opacity="0.80"/><circle cx="93.56" cy="437.37" r="1.47" fill="#8be76a" opacity="0.60"/><circle cx="172.74" cy="430.94" r="0.65" fill="#c9e656" opacity="0.39"/><circle cx="314.69" cy="403.45" r="0.63" fill="#c9e656" opacity="0.26"/><circle cx="303.95" cy="411.51" r="1.51" fill="#8be76a" opacity="0.43"/><circle cx="258.47" cy="317.49" r="1.26" fill="#c9e656" opacity="0.41"/><circle cx="200.59" cy="479.98" r="1.07" fill="#c9e656" opacity="0.62"/><circle cx="70.42" cy="374.59" r="1.58" fill="#8be76a" opacity="0.44"/><circle cx="429.52" cy="318.63" r="1.23" fill="#c9e656" opacity="0.69"/><circle cx="358.48" cy="418.40" r="1.09" fill="#c9e656" opacity="0.58"/><circle cx="326.24" cy="236.17" r="1.66" fill="#8be76a" opacity="0.49"/><circle cx="191.49" cy="361.98" r="0.70" fill="#c9e656" opacity="0.73"/><circle cx="179.99" cy="449.29" r="0.74" fill="#c9e656" opacity="0.23"/><circle cx="82.76" cy="299.93" r="1.32" fill="#8be76a" opacity="0.64"/><circle cx="280.78" cy="228.32" r="1.10" fill="#c9e656" opacity="0.56"/><circle cx="194.87" cy="228.25" r="1.23" fill="#c9e656" opacity="0.63"/><circle cx="349.94" cy="335.96" r="1.14" fill="#8be76a" opacity="0.65"/><circle cx="119.70" cy="260.13" r="0.98" fill="#c9e656" opacity="0.69"/><circle cx="436.35" cy="334.76" r="0.62" fill="#c9e656" opacity="0.69"/><circle cx="190.71" cy="364.72" r="1.07" fill="#8be76a" opacity="0.42"/><circle cx="294.31" cy="466.17" r="1.31" fill="#c9e656" opacity="0.54"/><circle cx="234.00" cy="347.05" r="1.13" fill="#c9e656" opacity="0.50"/><circle cx="411.65" cy="411.40" r="1.24" fill="#8be76a" opacity="0.73"/><circle cx="199.86" cy="481.40" r="0.65" fill="#c9e656" opacity="0.69"/><circle cx="173.13" cy="455.98" r="0.85" fill="#c9e656" opacity="0.70"/><circle cx="289.24" cy="481.87" r="0.82" fill="#8be76a" opacity="0.39"/><circle cx="294.58" cy="241.09" r="1.29" fill="#c9e656" opacity="0.37"/><circle cx="339.36" cy="251.73" r="1.24" fill="#c9e656" opacity="0.79"/><circle cx="134.99" cy="360.14" r="1.16" fill="#8be76a" opacity="0.61"/><circle cx="399.16" cy="288.70" r="1.14" fill="#c9e656" opacity="0.33"/><circle cx="370.53" cy="297.40" r="1.29" fill="#c9e656" opacity="0.78"/><circle cx="205.73" cy="252.05" r="0.62" fill="#8be76a" opacity="0.33"/><circle cx="152.48" cy="459.10" r="0.76" fill="#c9e656" opacity="0.46"/><circle cx="433.81" cy="373.13" r="1.42" fill="#c9e656" opacity="0.66"/><circle cx="341.73" cy="430.21" r="1.46" fill="#8be76a" opacity="0.40"/><circle cx="365.98" cy="268.02" r="1.66" fill="#c9e656" opacity="0.37"/><circle cx="199.96" cy="230.03" r="1.34" fill="#c9e656" opacity="0.38"/><circle cx="89.25" cy="429.39" r="0.99" fill="#8be76a" opacity="0.38"/><circle cx="203.62" cy="286.76" r="1.08" fill="#c9e656" opacity="0.28"/><circle cx="254.30" cy="499.74" r="1.18" fill="#c9e656" opacity="0.41"/><circle cx="207.75" cy="436.22" r="1.27" fill="#8be76a" opacity="0.36"/><circle cx="413.47" cy="357.09" r="1.23" fill="#c9e656" opacity="0.47"/><circle cx="61.40" cy="346.83" r="0.84" fill="#c9e656" opacity="0.25"/><circle cx="247.60" cy="457.02" r="1.54" fill="#8be76a" opacity="0.37"/><circle cx="245.73" cy="455.65" r="1.66" fill="#c9e656" opacity="0.32"/><circle cx="123.46" cy="262.71" r="0.82" fill="#c9e656" opacity="0.46"/><circle cx="124.82" cy="390.52" r="0.91" fill="#8be76a" opacity="0.54"/><circle cx="267.14" cy="257.71" r="1.23" fill="#c9e656" opacity="0.72"/><circle cx="166.55" cy="322.32" r="0.68" fill="#c9e656" opacity="0.55"/><circle cx="108.14" cy="284.65" r="1.09" fill="#8be76a" opacity="0.39"/><circle cx="150.78" cy="463.05" r="0.94" fill="#c9e656" opacity="0.38"/><circle cx="79.61" cy="409.01" r="1.69" fill="#c9e656" opacity="0.46"/><circle cx="68.97" cy="319.56" r="0.92" fill="#8be76a" opacity="0.53"/><circle cx="112.71" cy="271.06" r="0.94" fill="#c9e656" opacity="0.75"/><circle cx="313.32" cy="300.49" r="1.69" fill="#c9e656" opacity="0.72"/><circle cx="189.63" cy="435.53" r="0.87" fill="#8be76a" opacity="0.75"/><circle cx="136.78" cy="252.87" r="1.21" fill="#c9e656" opacity="0.51"/><circle cx="114.97" cy="373.82" r="1.23" fill="#c9e656" opacity="0.77"/><circle cx="223.10" cy="369.95" r="1.10" fill="#8be76a" opacity="0.23"/><circle cx="97.97" cy="360.60" r="0.95" fill="#c9e656" opacity="0.41"/><circle cx="285.41" cy="229.12" r="1.13" fill="#c9e656" opacity="0.44"/><circle cx="318.55" cy="373.99" r="0.78" fill="#8be76a" opacity="0.74"/><circle cx="327.77" cy="396.93" r="1.27" fill="#c9e656" opacity="0.79"/><circle cx="144.15" cy="324.98" r="0.86" fill="#c9e656" opacity="0.31"/><circle cx="104.68" cy="279.79" r="0.78" fill="#8be76a" opacity="0.27"/><circle cx="113.95" cy="303.93" r="0.65" fill="#c9e656" opacity="0.36"/><circle cx="335.27" cy="421.71" r="0.88" fill="#c9e656" opacity="0.73"/><circle cx="259.66" cy="242.15" r="1.29" fill="#8be76a" opacity="0.53"/><circle cx="161.23" cy="276.23" r="1.42" fill="#c9e656" opacity="0.28"/><circle cx="101.47" cy="309.12" r="0.63" fill="#c9e656" opacity="0.77"/><circle cx="106.22" cy="344.94" r="1.37" fill="#8be76a" opacity="0.54"/><circle cx="306.38" cy="467.73" r="1.35" fill="#c9e656" opacity="0.41"/><circle cx="238.93" cy="488.39" r="1.29" fill="#c9e656" opacity="0.79"/><circle cx="201.39" cy="493.88" r="1.59" fill="#8be76a" opacity="0.48"/><circle cx="124.20" cy="262.43" r="1.65" fill="#c9e656" opacity="0.22"/><circle cx="202.68" cy="406.23" r="1.63" fill="#c9e656" opacity="0.47"/><circle cx="102.26" cy="433.11" r="0.80" fill="#8be76a" opacity="0.25"/><circle cx="191.09" cy="414.28" r="1.28" fill="#c9e656" opacity="0.43"/><circle cx="356.81" cy="459.60" r="1.19" fill="#c9e656" opacity="0.39"/><circle cx="193.67" cy="350.33" r="1.65" fill="#8be76a" opacity="0.28"/><circle cx="398.81" cy="358.36" r="0.61" fill="#c9e656" opacity="0.46"/><circle cx="97.24" cy="420.43" r="1.50" fill="#c9e656" opacity="0.32"/><circle cx="241.93" cy="500.44" r="1.20" fill="#8be76a" opacity="0.60"/><circle cx="314.59" cy="488.31" r="1.41" fill="#c9e656" opacity="0.20"/><circle cx="301.57" cy="471.43" r="1.35" fill="#c9e656" opacity="0.41"/><circle cx="395.88" cy="450.56" r="1.52" fill="#8be76a" opacity="0.23"/><circle cx="347.93" cy="452.43" r="0.80" fill="#c9e656" opacity="0.67"/><circle cx="363.92" cy="443.62" r="1.33" fill="#c9e656" opacity="0.22"/><circle cx="420.74" cy="357.49" r="1.59" fill="#8be76a" opacity="0.54"/><circle cx="234.85" cy="483.38" r="0.96" fill="#c9e656" opacity="0.29"/><circle cx="265.34" cy="485.23" r="1.03" fill="#c9e656" opacity="0.23"/><circle cx="125.28" cy="463.83" r="1.14" fill="#8be76a" opacity="0.45"/><circle cx="378.08" cy="463.35" r="1.48" fill="#c9e656" opacity="0.37"/><circle cx="331.38" cy="469.08" r="1.41" fill="#c9e656" opacity="0.41"/><circle cx="329.74" cy="295.12" r="1.60" fill="#8be76a" opacity="0.76"/><circle cx="120.62" cy="271.39" r="0.87" fill="#c9e656" opacity="0.51"/><circle cx="426.89" cy="314.63" r="1.15" fill="#c9e656" opacity="0.49"/><circle cx="281.08" cy="460.79" r="1.25" fill="#8be76a" opacity="0.22"/><circle cx="410.40" cy="381.05" r="0.92" fill="#c9e656" opacity="0.31"/><circle cx="404.61" cy="372.58" r="1.04" fill="#c9e656" opacity="0.48"/><circle cx="205.18" cy="255.64" r="0.61" fill="#8be76a" opacity="0.56"/><circle cx="168.75" cy="486.36" r="0.89" fill="#c9e656" opacity="0.32"/><circle cx="61.37" cy="345.46" r="1.64" fill="#c9e656" opacity="0.49"/><circle cx="377.23" cy="258.65" r="1.67" fill="#8be76a" opacity="0.38"/><circle cx="314.19" cy="423.11" r="0.83" fill="#c9e656" opacity="0.44"/><circle cx="94.59" cy="302.25" r="0.66" fill="#c9e656" opacity="0.31"/><circle cx="151.11" cy="258.15" r="0.78" fill="#8be76a" opacity="0.47"/><circle cx="410.47" cy="306.51" r="1.03" fill="#c9e656" opacity="0.43"/><circle cx="373.82" cy="378.03" r="1.20" fill="#c9e656" opacity="0.25"/><circle cx="120.70" cy="463.10" r="1.48" fill="#8be76a" opacity="0.61"/><circle cx="436.48" cy="355.94" r="1.54" fill="#c9e656" opacity="0.25"/><circle cx="409.82" cy="291.90" r="0.96" fill="#c9e656" opacity="0.66"/><circle cx="397.03" cy="277.13" r="0.68" fill="#8be76a" opacity="0.68"/><circle cx="341.73" cy="288.26" r="0.86" fill="#c9e656" opacity="0.44"/><circle cx="239.94" cy="480.32" r="0.87" fill="#c9e656" opacity="0.54"/><circle cx="105.57" cy="361.69" r="0.85" fill="#8be76a" opacity="0.40"/><circle cx="69.61" cy="398.05" r="1.60" fill="#c9e656" opacity="0.25"/><circle cx="247.06" cy="361.86" r="0.82" fill="#c9e656" opacity="0.58"/><circle cx="405.69" cy="438.48" r="1.64" fill="#8be76a" opacity="0.60"/><circle cx="302.14" cy="464.23" r="0.91" fill="#c9e656" opacity="0.45"/><circle cx="217.77" cy="499.07" r="1.69" fill="#c9e656" opacity="0.73"/><circle cx="416.45" cy="294.53" r="1.30" fill="#8be76a" opacity="0.38"/><circle cx="259.87" cy="223.25" r="1.44" fill="#c9e656" opacity="0.54"/><circle cx="309.26" cy="487.51" r="0.67" fill="#c9e656" opacity="0.70"/><circle cx="322.15" cy="358.33" r="1.19" fill="#8be76a" opacity="0.58"/><circle cx="223.67" cy="428.27" r="1.29" fill="#c9e656" opacity="0.69"/><circle cx="322.06" cy="473.15" r="1.11" fill="#c9e656" opacity="0.33"/><circle cx="258.35" cy="242.08" r="1.48" fill="#8be76a" opacity="0.74"/><circle cx="128.59" cy="408.76" r="0.96" fill="#c9e656" opacity="0.25"/><circle cx="248.13" cy="354.06" r="0.85" fill="#c9e656" opacity="0.67"/><circle cx="374.03" cy="329.53" r="0.76" fill="#8be76a" opacity="0.46"/><circle cx="421.07" cy="346.93" r="1.35" fill="#c9e656" opacity="0.76"/><circle cx="284.81" cy="499.62" r="1.51" fill="#c9e656" opacity="0.75"/><circle cx="381.90" cy="461.03" r="1.22" fill="#8be76a" opacity="0.79"/><circle cx="81.95" cy="306.13" r="0.94" fill="#c9e656" opacity="0.31"/><circle cx="329.18" cy="301.76" r="1.32" fill="#c9e656" opacity="0.70"/><circle cx="103.70" cy="311.57" r="1.55" fill="#8be76a" opacity="0.71"/><circle cx="241.55" cy="327.43" r="0.94" fill="#c9e656" opacity="0.58"/><circle cx="287.38" cy="461.97" r="0.94" fill="#c9e656" opacity="0.30"/><circle cx="310.75" cy="490.08" r="1.32" fill="#8be76a" opacity="0.29"/><circle cx="143.71" cy="340.29" r="0.62" fill="#c9e656" opacity="0.76"/><circle cx="191.60" cy="453.84" r="1.03" fill="#c9e656" opacity="0.72"/><circle cx="373.40" cy="300.16" r="0.86" fill="#8be76a" opacity="0.29"/><circle cx="244.35" cy="287.17" r="0.63" fill="#c9e656" opacity="0.77"/><circle cx="225.39" cy="343.91" r="1.61" fill="#c9e656" opacity="0.70"/><circle cx="185.95" cy="253.92" r="1.17" fill="#8be76a" opacity="0.24"/><circle cx="207.63" cy="234.18" r="0.93" fill="#c9e656" opacity="0.37"/><circle cx="412.19" cy="292.73" r="1.07" fill="#c9e656" opacity="0.39"/><circle cx="336.20" cy="398.18" r="1.22" fill="#8be76a" opacity="0.49"/><circle cx="62.24" cy="341.41" r="1.34" fill="#c9e656" opacity="0.35"/><circle cx="154.10" cy="444.19" r="1.38" fill="#c9e656" opacity="0.35"/><circle cx="187.65" cy="342.69" r="0.89" fill="#8be76a" opacity="0.33"/><circle cx="129.33" cy="372.11" r="0.99" fill="#c9e656" opacity="0.53"/><circle cx="131.44" cy="460.36" r="1.35" fill="#c9e656" opacity="0.79"/><circle cx="252.43" cy="439.84" r="1.29" fill="#8be76a" opacity="0.60"/><circle cx="226.23" cy="233.57" r="0.70" fill="#c9e656" opacity="0.76"/><circle cx="401.28" cy="312.54" r="1.17" fill="#c9e656" opacity="0.37"/><circle cx="392.60" cy="400.51" r="1.20" fill="#8be76a" opacity="0.77"/><circle cx="419.34" cy="319.44" r="0.77" fill="#c9e656" opacity="0.71"/><circle cx="85.79" cy="432.37" r="1.54" fill="#c9e656" opacity="0.22"/><circle cx="213.59" cy="392.69" r="1.12" fill="#8be76a" opacity="0.54"/><circle cx="393.17" cy="309.39" r="0.72" fill="#c9e656" opacity="0.39"/><circle cx="216.52" cy="478.82" r="1.18" fill="#c9e656" opacity="0.23"/><circle cx="140.56" cy="322.56" r="0.91" fill="#8be76a" opacity="0.47"/><circle cx="108.06" cy="408.34" r="0.88" fill="#c9e656" opacity="0.50"/><circle cx="174.00" cy="477.23" r="1.06" fill="#c9e656" opacity="0.69"/><circle cx="323.89" cy="236.59" r="0.98" fill="#8be76a" opacity="0.44"/><circle cx="356.57" cy="465.55" r="0.69" fill="#c9e656" opacity="0.49"/><circle cx="125.38" cy="367.76" r="0.88" fill="#c9e656" opacity="0.72"/><circle cx="415.77" cy="311.02" r="1.13" fill="#8be76a" opacity="0.66"/><circle cx="368.96" cy="386.73" r="1.39" fill="#c9e656" opacity="0.21"/><circle cx="287.19" cy="264.45" r="0.87" fill="#c9e656" opacity="0.33"/><circle cx="255.71" cy="500.56" r="0.73" fill="#8be76a" opacity="0.69"/><circle cx="199.11" cy="283.17" r="0.86" fill="#c9e656" opacity="0.55"/><circle cx="179.75" cy="238.49" r="0.67" fill="#c9e656" opacity="0.53"/><circle cx="339.74" cy="480.59" r="1.06" fill="#8be76a" opacity="0.36"/><circle cx="225.56" cy="225.10" r="1.06" fill="#c9e656" opacity="0.57"/><circle cx="337.85" cy="403.10" r="1.27" fill="#c9e656" opacity="0.47"/><circle cx="119.66" cy="263.98" r="1.39" fill="#8be76a" opacity="0.61"/><circle cx="211.25" cy="336.97" r="0.89" fill="#c9e656" opacity="0.25"/><circle cx="291.32" cy="400.44" r="1.35" fill="#c9e656" opacity="0.55"/><circle cx="397.32" cy="311.91" r="0.82" fill="#8be76a" opacity="0.45"/><circle cx="106.93" cy="287.37" r="1.40" fill="#c9e656" opacity="0.29"/><circle cx="294.84" cy="392.11" r="0.83" fill="#c9e656" opacity="0.36"/><circle cx="277.42" cy="492.48" r="1.43" fill="#8be76a" opacity="0.23"/><circle cx="144.82" cy="328.69" r="1.23" fill="#c9e656" opacity="0.71"/><circle cx="74.14" cy="325.41" r="1.15" fill="#c9e656" opacity="0.59"/><circle cx="335.88" cy="241.34" r="0.81" fill="#8be76a" opacity="0.21"/><circle cx="122.26" cy="332.31" r="1.56" fill="#c9e656" opacity="0.22"/><circle cx="328.82" cy="456.08" r="0.97" fill="#c9e656" opacity="0.55"/><circle cx="372.96" cy="417.12" r="1.36" fill="#8be76a" opacity="0.54"/><circle cx="297.31" cy="439.38" r="1.02" fill="#c9e656" opacity="0.22"/><circle cx="155.46" cy="312.82" r="1.14" fill="#c9e656" opacity="0.62"/><circle cx="173.94" cy="255.03" r="0.63" fill="#8be76a" opacity="0.30"/><circle cx="106.30" cy="366.44" r="1.01" fill="#c9e656" opacity="0.59"/><circle cx="93.82" cy="436.93" r="0.62" fill="#c9e656" opacity="0.69"/><circle cx="165.29" cy="289.41" r="1.44" fill="#8be76a" opacity="0.75"/><circle cx="333.84" cy="485.83" r="1.45" fill="#c9e656" opacity="0.67"/><circle cx="125.00" cy="371.86" r="1.34" fill="#c9e656" opacity="0.51"/><circle cx="141.26" cy="288.59" r="1.25" fill="#8be76a" opacity="0.67"/><circle cx="216.53" cy="377.63" r="0.87" fill="#c9e656" opacity="0.24"/><circle cx="271.16" cy="494.57" r="1.61" fill="#c9e656" opacity="0.52"/><circle cx="372.96" cy="384.04" r="0.95" fill="#8be76a" opacity="0.49"/><circle cx="72.08" cy="402.02" r="0.88" fill="#c9e656" opacity="0.61"/><circle cx="74.29" cy="308.81" r="0.68" fill="#c9e656" opacity="0.37"/><circle cx="131.90" cy="348.66" r="1.25" fill="#8be76a" opacity="0.55"/><circle cx="133.95" cy="318.98" r="0.81" fill="#c9e656" opacity="0.65"/><circle cx="148.07" cy="249.15" r="1.12" fill="#c9e656" opacity="0.66"/><circle cx="393.99" cy="324.57" r="1.46" fill="#8be76a" opacity="0.61"/><circle cx="206.68" cy="465.40" r="0.76" fill="#c9e656" opacity="0.58"/><circle cx="289.59" cy="282.64" r="1.22" fill="#c9e656" opacity="0.49"/><circle cx="160.96" cy="485.24" r="1.66" fill="#8be76a" opacity="0.40"/><circle cx="434.71" cy="366.07" r="1.48" fill="#c9e656" opacity="0.51"/><circle cx="251.31" cy="401.46" r="1.05" fill="#c9e656" opacity="0.66"/><circle cx="297.51" cy="257.80" r="1.18" fill="#8be76a" opacity="0.55"/><circle cx="361.15" cy="248.55" r="1.09" fill="#c9e656" opacity="0.42"/><circle cx="259.50" cy="256.76" r="1.33" fill="#c9e656" opacity="0.24"/><circle cx="147.66" cy="451.11" r="0.72" fill="#8be76a" opacity="0.21"/><circle cx="351.27" cy="378.08" r="1.20" fill="#c9e656" opacity="0.38"/><circle cx="298.59" cy="489.03" r="1.46" fill="#c9e656" opacity="0.61"/><circle cx="161.52" cy="293.34" r="0.67" fill="#8be76a" opacity="0.21"/><circle cx="180.17" cy="360.66" r="1.48" fill="#c9e656" opacity="0.60"/><circle cx="84.06" cy="429.27" r="0.77" fill="#c9e656" opacity="0.70"/><circle cx="125.54" cy="460.05" r="1.65" fill="#8be76a" opacity="0.27"/><circle cx="392.50" cy="318.67" r="1.24" fill="#c9e656" opacity="0.79"/><circle cx="387.77" cy="309.78" r="1.14" fill="#c9e656" opacity="0.41"/><circle cx="231.90" cy="468.20" r="1.66" fill="#8be76a" opacity="0.30"/><circle cx="377.46" cy="464.96" r="1.32" fill="#c9e656" opacity="0.68"/><circle cx="149.92" cy="465.26" r="1.44" fill="#c9e656" opacity="0.75"/><circle cx="123.68" cy="346.79" r="0.82" fill="#8be76a" opacity="0.37"/><circle cx="246.08" cy="344.34" r="1.39" fill="#c9e656" opacity="0.79"/><circle cx="219.88" cy="269.61" r="0.90" fill="#c9e656" opacity="0.70"/><circle cx="387.61" cy="317.93" r="0.96" fill="#8be76a" opacity="0.30"/><circle cx="107.12" cy="452.37" r="0.95" fill="#c9e656" opacity="0.45"/><circle cx="298.88" cy="350.24" r="0.78" fill="#c9e656" opacity="0.43"/><circle cx="317.87" cy="307.61" r="1.19" fill="#8be76a" opacity="0.45"/><circle cx="416.62" cy="319.51" r="0.69" fill="#c9e656" opacity="0.27"/><circle cx="137.89" cy="435.84" r="0.98" fill="#c9e656" opacity="0.36"/><circle cx="213.51" cy="225.12" r="1.12" fill="#8be76a" opacity="0.46"/><circle cx="331.62" cy="337.48" r="0.97" fill="#c9e656" opacity="0.65"/><circle cx="83.73" cy="309.83" r="0.65" fill="#c9e656" opacity="0.49"/><circle cx="123.91" cy="436.38" r="0.74" fill="#8be76a" opacity="0.41"/><circle cx="104.63" cy="440.97" r="1.31" fill="#c9e656" opacity="0.67"/><circle cx="357.39" cy="389.27" r="1.67" fill="#c9e656" opacity="0.29"/><circle cx="273.95" cy="241.07" r="0.69" fill="#8be76a" opacity="0.21"/><circle cx="108.02" cy="372.82" r="1.12" fill="#c9e656" opacity="0.22"/><circle cx="250.83" cy="424.66" r="1.00" fill="#c9e656" opacity="0.64"/><circle cx="112.16" cy="270.92" r="1.19" fill="#8be76a" opacity="0.57"/><circle cx="387.23" cy="410.67" r="1.45" fill="#c9e656" opacity="0.21"/><circle cx="247.65" cy="223.28" r="1.65" fill="#c9e656" opacity="0.66"/><circle cx="163.52" cy="245.25" r="1.10" fill="#8be76a" opacity="0.65"/><circle cx="321.35" cy="235.40" r="1.49" fill="#c9e656" opacity="0.75"/><circle cx="77.82" cy="313.10" r="1.01" fill="#c9e656" opacity="0.52"/><circle cx="365.86" cy="466.43" r="0.79" fill="#8be76a" opacity="0.64"/><circle cx="388.74" cy="441.34" r="1.67" fill="#c9e656" opacity="0.26"/><circle cx="295.29" cy="340.90" r="1.52" fill="#c9e656" opacity="0.73"/><circle cx="294.48" cy="498.05" r="0.67" fill="#8be76a" opacity="0.28"/><circle cx="101.46" cy="388.77" r="1.61" fill="#c9e656" opacity="0.45"/><circle cx="149.14" cy="257.76" r="1.25" fill="#c9e656" opacity="0.22"/><circle cx="265.11" cy="451.45" r="1.23" fill="#8be76a" opacity="0.52"/><circle cx="274.61" cy="443.69" r="1.66" fill="#c9e656" opacity="0.75"/><circle cx="343.30" cy="462.66" r="1.27" fill="#c9e656" opacity="0.30"/><circle cx="197.60" cy="491.23" r="0.98" fill="#8be76a" opacity="0.35"/><circle cx="217.82" cy="471.08" r="1.54" fill="#c9e656" opacity="0.53"/><circle cx="221.82" cy="479.38" r="1.25" fill="#c9e656" opacity="0.45"/><circle cx="74.35" cy="310.17" r="0.77" fill="#8be76a" opacity="0.20"/><circle cx="67.23" cy="382.47" r="1.51" fill="#c9e656" opacity="0.33"/><circle cx="423.05" cy="348.06" r="1.30" fill="#c9e656" opacity="0.50"/><circle cx="108.64" cy="447.28" r="0.87" fill="#8be76a" opacity="0.26"/><circle cx="317.42" cy="232.18" r="1.08" fill="#c9e656" opacity="0.31"/><circle cx="107.05" cy="325.81" r="0.92" fill="#c9e656" opacity="0.35"/><circle cx="225.24" cy="325.18" r="1.41" fill="#8be76a" opacity="0.74"/><circle cx="401.24" cy="345.03" r="0.79" fill="#c9e656" opacity="0.74"/><circle cx="79.32" cy="337.35" r="1.32" fill="#c9e656" opacity="0.36"/><circle cx="348.39" cy="273.57" r="1.00" fill="#8be76a" opacity="0.49"/><circle cx="251.56" cy="501.89" r="0.67" fill="#c9e656" opacity="0.54"/><circle cx="297.07" cy="433.62" r="1.61" fill="#c9e656" opacity="0.43"/><circle cx="354.24" cy="448.81" r="0.74" fill="#8be76a" opacity="0.47"/><circle cx="420.37" cy="422.98" r="1.13" fill="#c9e656" opacity="0.55"/><circle cx="133.02" cy="254.42" r="1.27" fill="#c9e656" opacity="0.72"/><circle cx="111.19" cy="266.45" r="0.64" fill="#8be76a" opacity="0.46"/><circle cx="260.87" cy="229.38" r="1.06" fill="#c9e656" opacity="0.37"/><circle cx="370.18" cy="256.95" r="1.39" fill="#c9e656" opacity="0.51"/><circle cx="320.71" cy="407.33" r="1.30" fill="#8be76a" opacity="0.33"/><circle cx="171.72" cy="467.17" r="1.38" fill="#c9e656" opacity="0.48"/><circle cx="439.59" cy="355.50" r="0.63" fill="#c9e656" opacity="0.75"/><circle cx="327.98" cy="415.93" r="1.45" fill="#8be76a" opacity="0.59"/><circle cx="338.03" cy="455.27" r="0.84" fill="#c9e656" opacity="0.41"/><circle cx="402.26" cy="282.01" r="0.67" fill="#c9e656" opacity="0.21"/><text x="28" y="50" fill="#acb9a8" font-size="13" text-anchor="start" font-weight="400">PROJECT / OPEN SOURCE</text><text x="28" y="117" font-size="46.0" fill="url(#brand)" font-weight="700">N-Bridge</text><text x="28" y="163.0" fill="#fdfbee" font-size="21" text-anchor="start" font-weight="400">Query the right Google</text><text x="28" y="192.4" fill="#fdfbee" font-size="21" text-anchor="start" font-weight="400">accounts in one call</text><path d="M126.5 418.0L204.4 341.0L278.5 369.0L360.2 292.0" fill="none" stroke="#c9e656" stroke-width="1.5" marker-end="url(#arrow)"/><path d="M126.5 418.0L204.4 341.0L278.5 369.0L360.2 292.0" class="flow" fill="none" stroke="#f6eaac" stroke-width="2"/><circle cx="126.5" cy="418.0" r="12" fill="#f6eaac" opacity=".5" filter="url(#glow)"/><circle class="pulse" cx="126.5" cy="418.0" r="3" fill="#f6eaac"/><circle cx="204.4" cy="341.0" r="12" fill="#f6eaac" opacity=".5" filter="url(#glow)"/><circle class="pulse" cx="204.4" cy="341.0" r="3" fill="#f6eaac"/><circle cx="278.5" cy="369.0" r="12" fill="#f6eaac" opacity=".5" filter="url(#glow)"/><circle class="pulse" cx="278.5" cy="369.0" r="3" fill="#f6eaac"/><circle cx="360.2" cy="292.0" r="12" fill="#f6eaac" opacity=".5" filter="url(#glow)"/><circle class="pulse" cx="360.2" cy="292.0" r="3" fill="#f6eaac"/></svg>
